<?xml version="1.0" encoding="UTF-8"?>
<svg width="100px" height="100px" viewBox="0 0 100 100" version="1.1" xmlns="http://www.w3.org/2000/svg" xmlns:xlink="http://www.w3.org/1999/xlink">
    <!-- Generator: Sketch 57.1 (83088) - https://sketch.com -->
    <title>Artboard</title>
    <desc>Created with Sketch.</desc>
    <g id="Artboard" stroke="none" stroke-width="1" fill="none" fill-rule="evenodd">
        <g id="Group" transform="translate(28.000000, 8.000000)">
            <path d="M21.5,1 L21.4994923,7.24541363 C26.9320724,9.18531 30.8092784,14.2739673 30.8092784,20.2461288 C30.8092784,26.1121957 27.0686049,31.1258701 21.787534,33.1404895 C22.712736,34.2033995 23.2731959,35.5930098 23.2731959,37.1135226 C23.2731959,39.3857176 22.0216246,41.3655926 20.1702657,42.4013637 L20.1704654,51.4176862 C14.1858208,52.0629553 9.53092784,57.0130603 9.53092784,63.0238821 C9.53092784,69.4731466 14.889664,74.7013086 21.5,74.7013086 C28.110336,74.7013086 33.4690722,69.4731466 33.4690722,63.0238821 C33.4690722,62.3419063 33.4091511,61.6735849 33.2941652,61.0236559 C32.4413614,62.5659549 30.7988761,63.6107272 28.9123711,63.6107272 L27.0412371,63.6107272 C24.8378377,63.6107272 23.0516295,61.8245191 23.0516295,59.6211197 C23.0516295,58.9274488 23.2324913,58.2457641 23.5763686,57.6433293 L27.9449732,49.9900204 C28.3346689,49.3073171 28.9381331,48.8230147 29.6230229,48.5732729 L32.1520697,44.7990608 C38.6324014,48.4121358 43,55.2203836 43,63.0238821 C43,74.6086721 33.3741221,84 21.5,84 C9.62587788,84 0,74.6086721 0,63.0238821 C0,53.51325 6.48758074,45.480952 15.3806696,42.9095943 C12.8932949,42.156783 11.0824742,39.8466227 11.0824742,37.1135226 C11.0824742,35.7313887 11.5455634,34.4574151 12.3250461,33.4382973 C6.59213405,31.6628651 2.43814433,26.4277846 2.43814433,20.2461288 C2.43814433,13.9539237 6.74203788,8.64245271 12.6343568,6.96101744 L12.6340206,1 L21.5,1 Z M27.011,42.743 L27.0993985,42.7662234 L27.0993985,42.7662234 L27.2019001,42.7933925 L27.011,42.743 Z M21.49932,11.7683407 L21.5,18.1918741 C21.5,20.6401467 19.5152829,22.6248638 17.0670103,22.6248638 C14.6187377,22.6248638 12.6340206,20.6401467 12.6340206,18.1918741 L12.6347006,11.7683407 C9.47655646,13.3431248 7.31443299,16.5482838 7.31443299,20.2461288 C7.31443299,25.5010851 11.6808106,29.7610689 17.0670103,29.7610689 C22.45321,29.7610689 26.8195876,25.5010851 26.8195876,20.2461288 C26.8195876,16.5482838 24.6574642,13.3431248 21.49932,11.7683407 Z" id="Oval-2" fill="#3B451E"></path>
            <path d="M22.5,0 L22.4994923,6.24541363 C27.9320724,8.18531 31.8092784,13.2739673 31.8092784,19.2461288 C31.8092784,25.1121957 28.0686049,30.1258701 22.787534,32.1404895 C23.712736,33.2033995 24.2731959,34.5930098 24.2731959,36.1135226 C24.2731959,38.3857176 23.0216246,40.3655926 21.1702657,41.4013637 L21.1704654,50.4176862 C15.1858208,51.0629553 10.5309278,56.0130603 10.5309278,62.0238821 C10.5309278,68.4731466 15.889664,73.7013086 22.5,73.7013086 C29.110336,73.7013086 34.4690722,68.4731466 34.4690722,62.0238821 C34.4690722,61.3419063 34.4091511,60.6735849 34.2941652,60.0236559 C33.4413614,61.5659549 31.7988761,62.6107272 29.9123711,62.6107272 L28.0412371,62.6107272 C25.8378377,62.6107272 24.0516295,60.8245191 24.0516295,58.6211197 C24.0516295,57.9274488 24.2324913,57.2457641 24.5763686,56.6433293 L28.9449732,48.9900204 C29.3346689,48.3073171 29.9381331,47.8230147 30.6230229,47.5732729 L33.1520697,43.7990608 C39.6324014,47.4121358 44,54.2203836 44,62.0238821 C44,73.6086721 34.3741221,83 22.5,83 C10.6258779,83 1,73.6086721 1,62.0238821 C1,52.51325 7.48758074,44.480952 16.3806696,41.9095943 C13.8932949,41.156783 12.0824742,38.8466227 12.0824742,36.1135226 C12.0824742,34.7313887 12.5455634,33.4574151 13.3250461,32.4382973 C7.59213405,30.6628651 3.43814433,25.4277846 3.43814433,19.2461288 C3.43814433,12.9539237 7.74203788,7.64245271 13.6343568,5.96101744 L13.6340206,0 L22.5,0 Z M28.011,41.743 L28.0993985,41.7662234 L28.0993985,41.7662234 L28.2019001,41.7933925 L28.011,41.743 Z M22.49932,10.7683407 L22.5,17.1918741 C22.5,19.6401467 20.5152829,21.6248638 18.0670103,21.6248638 C15.6187377,21.6248638 13.6340206,19.6401467 13.6340206,17.1918741 L13.6347006,10.7683407 C10.4765565,12.3431248 8.31443299,15.5482838 8.31443299,19.2461288 C8.31443299,24.5010851 12.6808106,28.7610689 18.0670103,28.7610689 C23.45321,28.7610689 27.8195876,24.5010851 27.8195876,19.2461288 C27.8195876,15.5482838 25.6574642,12.3431248 22.49932,10.7683407 Z" id="Oval-2" fill="#87EDED"></path>
        </g>
    </g>
</svg>